# xmcd
#
# Track frame offsets: 
#        150
#        26340
#        39252
#        64092
#        87082
#        104265
#        118670
#        132240
#        154917
#        168215
#        181152
#        212822
#        223230
#
# Disc length: 3187 seconds
#
# Revision: 0
# Processed by: cddbd v1.5.1PL2 Copyright (c) Steve Scherf et al.
# Submitted via: ExactAudioCopy v0.95a5
#
DISCID=ac0c710d
DTITLE=Blues Blend - Droppin' In
DYEAR=2003
DGENRE=Blues
TTITLE0=Tell Me Baby
TTITLE1=Oh Babe!
TTITLE2=Love to play the Blues
TTITLE3=Muggy Mambo
TTITLE4=Feel like Crying
TTITLE5=John Henry
TTITLE6=Let me know
TTITLE7=How can you stand it
TTITLE8=C-Jam Blues
TTITLE9=Slow Down
TTITLE10=City Living
TTITLE11=Tapdance Boogie
TTITLE12=Howling at the Moon
EXTD=
EXTT0=
EXTT1=
EXTT2=
EXTT3=
EXTT4=
EXTT5=
EXTT6=
EXTT7=
EXTT8=
EXTT9=
EXTT10=
EXTT11=
EXTT12=
PLAYORDER=
